<svg xmlns="http://www.w3.org/2000/svg" xmlns:xlink="http://www.w3.org/1999/xlink" zoomAndPan="magnify" preserveAspectRatio="xMidYMid meet" version="1.0" viewBox="89.54 162.09 196.59 34.87"><defs><g/></defs><g fill="#ffffff" fill-opacity="1"><g transform="translate(88.477282, 181.914362)"><g><path d="M 13.125 -18.796875 C 13.269531 -19.066406 13.507812 -19.253906 13.84375 -19.359375 C 14.1875 -19.472656 14.613281 -19.53125 15.125 -19.53125 C 15.644531 -19.53125 16.054688 -19.484375 16.359375 -19.390625 C 16.660156 -19.304688 16.890625 -19.203125 17.046875 -19.078125 C 17.210938 -18.953125 17.335938 -18.773438 17.421875 -18.546875 C 17.515625 -18.242188 17.5625 -17.78125 17.5625 -17.15625 L 17.5625 -2.375 C 17.5625 -1.96875 17.546875 -1.660156 17.515625 -1.453125 C 17.484375 -1.242188 17.398438 -1.007812 17.265625 -0.75 C 17.015625 -0.269531 16.320312 -0.03125 15.1875 -0.03125 C 13.945312 -0.03125 13.21875 -0.359375 13 -1.015625 C 12.894531 -1.316406 12.84375 -1.773438 12.84375 -2.390625 L 12.84375 -7.8125 L 5.78125 -7.8125 L 5.78125 -2.375 C 5.78125 -1.96875 5.765625 -1.660156 5.734375 -1.453125 C 5.710938 -1.242188 5.628906 -1.007812 5.484375 -0.75 C 5.234375 -0.269531 4.539062 -0.03125 3.40625 -0.03125 C 2.164062 -0.03125 1.4375 -0.359375 1.21875 -1.015625 C 1.113281 -1.316406 1.0625 -1.773438 1.0625 -2.390625 L 1.0625 -17.1875 C 1.0625 -17.59375 1.070312 -17.894531 1.09375 -18.09375 C 1.125 -18.300781 1.210938 -18.539062 1.359375 -18.8125 C 1.609375 -19.289062 2.300781 -19.53125 3.4375 -19.53125 C 4.675781 -19.53125 5.410156 -19.203125 5.640625 -18.546875 C 5.734375 -18.242188 5.78125 -17.78125 5.78125 -17.15625 L 5.78125 -11.71875 L 12.84375 -11.71875 L 12.84375 -17.1875 C 12.84375 -17.59375 12.851562 -17.894531 12.875 -18.09375 C 12.90625 -18.300781 12.988281 -18.535156 13.125 -18.796875 Z M 13.125 -18.796875 "/></g></g></g><g fill="#ffffff" fill-opacity="1"><g transform="translate(108.241978, 181.914362)"><g><path d="M 5.78125 -4.71875 L 13.984375 -4.71875 C 14.390625 -4.71875 14.695312 -4.703125 14.90625 -4.671875 C 15.113281 -4.648438 15.347656 -4.566406 15.609375 -4.421875 C 16.085938 -4.171875 16.328125 -3.476562 16.328125 -2.34375 C 16.328125 -1.101562 16 -0.375 15.34375 -0.15625 C 15.039062 -0.0507812 14.578125 0 13.953125 0 L 3.40625 0 C 2.164062 0 1.4375 -0.335938 1.21875 -1.015625 C 1.113281 -1.296875 1.0625 -1.75 1.0625 -2.375 L 1.0625 -17.1875 C 1.0625 -18.09375 1.226562 -18.707031 1.5625 -19.03125 C 1.90625 -19.363281 2.546875 -19.53125 3.484375 -19.53125 L 13.984375 -19.53125 C 14.390625 -19.53125 14.695312 -19.515625 14.90625 -19.484375 C 15.113281 -19.460938 15.347656 -19.378906 15.609375 -19.234375 C 16.085938 -18.984375 16.328125 -18.289062 16.328125 -17.15625 C 16.328125 -15.914062 16 -15.1875 15.34375 -14.96875 C 15.039062 -14.863281 14.578125 -14.8125 13.953125 -14.8125 L 5.78125 -14.8125 L 5.78125 -12.125 L 11.0625 -12.125 C 11.46875 -12.125 11.769531 -12.109375 11.96875 -12.078125 C 12.175781 -12.054688 12.414062 -11.972656 12.6875 -11.828125 C 13.164062 -11.578125 13.40625 -10.882812 13.40625 -9.75 C 13.40625 -8.507812 13.066406 -7.78125 12.390625 -7.5625 C 12.085938 -7.457031 11.625 -7.40625 11 -7.40625 L 5.78125 -7.40625 Z M 5.78125 -4.71875 "/></g></g></g><g fill="#ffffff" fill-opacity="1"><g transform="translate(126.381842, 181.914362)"><g><path d="M 5.78125 -3.9375 L 13.03125 -3.9375 C 13.613281 -3.9375 14.035156 -3.867188 14.296875 -3.734375 C 14.566406 -3.609375 14.742188 -3.398438 14.828125 -3.109375 C 14.921875 -2.828125 14.96875 -2.453125 14.96875 -1.984375 C 14.96875 -1.515625 14.921875 -1.132812 14.828125 -0.84375 C 14.742188 -0.5625 14.597656 -0.367188 14.390625 -0.265625 C 14.046875 -0.0859375 13.582031 0 13 0 L 3.40625 0 C 2.164062 0 1.4375 -0.335938 1.21875 -1.015625 C 1.113281 -1.296875 1.0625 -1.75 1.0625 -2.375 L 1.0625 -17.1875 C 1.0625 -17.59375 1.070312 -17.894531 1.09375 -18.09375 C 1.125 -18.300781 1.210938 -18.539062 1.359375 -18.8125 C 1.609375 -19.289062 2.300781 -19.53125 3.4375 -19.53125 C 4.675781 -19.53125 5.410156 -19.203125 5.640625 -18.546875 C 5.734375 -18.242188 5.78125 -17.78125 5.78125 -17.15625 Z M 5.78125 -3.9375 "/></g></g></g><g fill="#ffffff" fill-opacity="1"><g transform="translate(143.163237, 181.914362)"><g><path d="M 5.78125 -3.9375 L 13.03125 -3.9375 C 13.613281 -3.9375 14.035156 -3.867188 14.296875 -3.734375 C 14.566406 -3.609375 14.742188 -3.398438 14.828125 -3.109375 C 14.921875 -2.828125 14.96875 -2.453125 14.96875 -1.984375 C 14.96875 -1.515625 14.921875 -1.132812 14.828125 -0.84375 C 14.742188 -0.5625 14.597656 -0.367188 14.390625 -0.265625 C 14.046875 -0.0859375 13.582031 0 13 0 L 3.40625 0 C 2.164062 0 1.4375 -0.335938 1.21875 -1.015625 C 1.113281 -1.296875 1.0625 -1.75 1.0625 -2.375 L 1.0625 -17.1875 C 1.0625 -17.59375 1.070312 -17.894531 1.09375 -18.09375 C 1.125 -18.300781 1.210938 -18.539062 1.359375 -18.8125 C 1.609375 -19.289062 2.300781 -19.53125 3.4375 -19.53125 C 4.675781 -19.53125 5.410156 -19.203125 5.640625 -18.546875 C 5.734375 -18.242188 5.78125 -17.78125 5.78125 -17.15625 Z M 5.78125 -3.9375 "/></g></g></g><g fill="#ffffff" fill-opacity="1"><g transform="translate(159.94463, 181.914362)"><g><path d="M 10.234375 -19.765625 C 12.859375 -19.765625 15.140625 -18.8125 17.078125 -16.90625 C 19.015625 -15.007812 19.984375 -12.65625 19.984375 -9.84375 C 19.984375 -7.03125 19.054688 -4.632812 17.203125 -2.65625 C 15.359375 -0.675781 13.085938 0.3125 10.390625 0.3125 C 7.691406 0.3125 5.394531 -0.660156 3.5 -2.609375 C 1.613281 -4.566406 0.671875 -6.894531 0.671875 -9.59375 C 0.671875 -11.0625 0.9375 -12.441406 1.46875 -13.734375 C 2 -15.023438 2.707031 -16.101562 3.59375 -16.96875 C 4.476562 -17.84375 5.5 -18.523438 6.65625 -19.015625 C 7.8125 -19.515625 9.003906 -19.765625 10.234375 -19.765625 Z M 5.375 -9.71875 C 5.375 -8.144531 5.882812 -6.863281 6.90625 -5.875 C 7.925781 -4.882812 9.066406 -4.390625 10.328125 -4.390625 C 11.597656 -4.390625 12.738281 -4.867188 13.75 -5.828125 C 14.757812 -6.785156 15.265625 -8.070312 15.265625 -9.6875 C 15.265625 -11.3125 14.753906 -12.609375 13.734375 -13.578125 C 12.710938 -14.554688 11.570312 -15.046875 10.3125 -15.046875 C 9.050781 -15.046875 7.910156 -14.550781 6.890625 -13.5625 C 5.878906 -12.582031 5.375 -11.300781 5.375 -9.71875 Z M 5.375 -9.71875 "/></g></g></g><g fill="#ffffff" fill-opacity="1"><g transform="translate(181.733715, 181.914362)"><g/></g></g><g fill="#ffffff" fill-opacity="1"><g transform="translate(189.618465, 181.914362)"><g><path d="M 14.96875 -10.46875 C 16.019531 -9.226562 16.546875 -7.832031 16.546875 -6.28125 C 16.503906 -4.507812 15.894531 -3.023438 14.71875 -1.828125 C 13.539062 -0.628906 12.109375 -0.03125 10.421875 -0.03125 L 3.40625 -0.03125 C 2.164062 -0.03125 1.4375 -0.363281 1.21875 -1.03125 C 1.113281 -1.332031 1.0625 -1.796875 1.0625 -2.421875 L 1.0625 -17.203125 C 1.0625 -17.628906 1.070312 -17.941406 1.09375 -18.140625 C 1.125 -18.335938 1.210938 -18.566406 1.359375 -18.828125 C 1.609375 -19.304688 2.300781 -19.546875 3.4375 -19.546875 L 10.15625 -19.546875 C 11.78125 -19.546875 13.144531 -18.976562 14.25 -17.84375 C 15.40625 -16.695312 15.984375 -15.3125 15.984375 -13.6875 C 15.984375 -12.519531 15.644531 -11.445312 14.96875 -10.46875 Z M 11.828125 -6.546875 C 11.828125 -6.972656 11.773438 -7.3125 11.671875 -7.5625 C 11.578125 -7.8125 11.414062 -7.988281 11.1875 -8.09375 C 10.832031 -8.238281 10.332031 -8.3125 9.6875 -8.3125 C 9.050781 -8.3125 8.570312 -8.4375 8.25 -8.6875 C 7.9375 -8.9375 7.78125 -9.445312 7.78125 -10.21875 C 7.78125 -10.988281 7.941406 -11.5 8.265625 -11.75 C 8.597656 -12 9.144531 -12.125 9.90625 -12.125 C 10.613281 -12.125 11.039062 -12.3125 11.1875 -12.6875 C 11.238281 -12.875 11.265625 -13.191406 11.265625 -13.640625 C 11.265625 -14.085938 11.117188 -14.398438 10.828125 -14.578125 C 10.535156 -14.753906 10.097656 -14.84375 9.515625 -14.84375 L 5.78125 -14.84375 L 5.78125 -4.734375 L 10.15625 -4.734375 C 11.269531 -4.734375 11.828125 -5.335938 11.828125 -6.546875 Z M 11.828125 -6.546875 "/></g></g></g><g fill="#ffffff" fill-opacity="1"><g transform="translate(207.971423, 181.914362)"><g><path d="M 13.828125 -18.796875 C 14.003906 -19.085938 14.257812 -19.285156 14.59375 -19.390625 C 14.9375 -19.492188 15.359375 -19.546875 15.859375 -19.546875 C 16.367188 -19.546875 16.773438 -19.5 17.078125 -19.40625 C 17.378906 -19.320312 17.609375 -19.21875 17.765625 -19.09375 C 17.929688 -18.976562 18.046875 -18.796875 18.109375 -18.546875 C 18.222656 -18.242188 18.28125 -17.78125 18.28125 -17.15625 L 18.28125 -9.109375 C 18.28125 -6.765625 17.550781 -4.632812 16.09375 -2.71875 C 15.382812 -1.8125 14.46875 -1.078125 13.34375 -0.515625 C 12.226562 0.0351562 10.988281 0.3125 9.625 0.3125 C 8.269531 0.3125 7.035156 0.03125 5.921875 -0.53125 C 4.816406 -1.101562 3.914062 -1.847656 3.21875 -2.765625 C 1.78125 -4.648438 1.0625 -6.785156 1.0625 -9.171875 L 1.0625 -17.1875 C 1.0625 -17.613281 1.070312 -17.925781 1.09375 -18.125 C 1.125 -18.332031 1.210938 -18.566406 1.359375 -18.828125 C 1.503906 -19.097656 1.742188 -19.285156 2.078125 -19.390625 C 2.410156 -19.492188 2.863281 -19.546875 3.4375 -19.546875 C 4.007812 -19.546875 4.460938 -19.492188 4.796875 -19.390625 C 5.128906 -19.285156 5.359375 -19.097656 5.484375 -18.828125 C 5.703125 -18.421875 5.8125 -17.863281 5.8125 -17.15625 L 5.8125 -9.171875 C 5.8125 -8.085938 6.078125 -7.054688 6.609375 -6.078125 C 6.867188 -5.578125 7.265625 -5.175781 7.796875 -4.875 C 8.335938 -4.570312 8.972656 -4.421875 9.703125 -4.421875 C 10.992188 -4.421875 11.957031 -4.898438 12.59375 -5.859375 C 13.238281 -6.816406 13.5625 -7.925781 13.5625 -9.1875 L 13.5625 -17.34375 C 13.5625 -18.03125 13.648438 -18.515625 13.828125 -18.796875 Z M 13.828125 -18.796875 "/></g></g></g><g fill="#ffffff" fill-opacity="1"><g transform="translate(228.455316, 181.914362)"><g><path d="M 3.4375 -19.546875 L 8.359375 -19.53125 C 10.941406 -19.53125 13.207031 -18.597656 15.15625 -16.734375 C 17.113281 -14.878906 18.09375 -12.597656 18.09375 -9.890625 C 18.09375 -7.179688 17.132812 -4.859375 15.21875 -2.921875 C 13.3125 -0.992188 11 -0.03125 8.28125 -0.03125 L 3.40625 -0.03125 C 2.320312 -0.03125 1.648438 -0.25 1.390625 -0.6875 C 1.171875 -1.0625 1.0625 -1.628906 1.0625 -2.390625 L 1.0625 -17.203125 C 1.0625 -17.628906 1.070312 -17.941406 1.09375 -18.140625 C 1.125 -18.335938 1.210938 -18.566406 1.359375 -18.828125 C 1.609375 -19.304688 2.300781 -19.546875 3.4375 -19.546875 Z M 8.359375 -4.734375 C 9.640625 -4.734375 10.796875 -5.207031 11.828125 -6.15625 C 12.859375 -7.113281 13.375 -8.3125 13.375 -9.75 C 13.375 -11.1875 12.867188 -12.390625 11.859375 -13.359375 C 10.859375 -14.328125 9.6875 -14.8125 8.34375 -14.8125 L 5.78125 -14.8125 L 5.78125 -4.734375 Z M 8.359375 -4.734375 "/></g></g></g><g fill="#ffffff" fill-opacity="1"><g transform="translate(248.353203, 181.914362)"><g><path d="M 3.4375 -19.546875 L 8.359375 -19.53125 C 10.941406 -19.53125 13.207031 -18.597656 15.15625 -16.734375 C 17.113281 -14.878906 18.09375 -12.597656 18.09375 -9.890625 C 18.09375 -7.179688 17.132812 -4.859375 15.21875 -2.921875 C 13.3125 -0.992188 11 -0.03125 8.28125 -0.03125 L 3.40625 -0.03125 C 2.320312 -0.03125 1.648438 -0.25 1.390625 -0.6875 C 1.171875 -1.0625 1.0625 -1.628906 1.0625 -2.390625 L 1.0625 -17.203125 C 1.0625 -17.628906 1.070312 -17.941406 1.09375 -18.140625 C 1.125 -18.335938 1.210938 -18.566406 1.359375 -18.828125 C 1.609375 -19.304688 2.300781 -19.546875 3.4375 -19.546875 Z M 8.359375 -4.734375 C 9.640625 -4.734375 10.796875 -5.207031 11.828125 -6.15625 C 12.859375 -7.113281 13.375 -8.3125 13.375 -9.75 C 13.375 -11.1875 12.867188 -12.390625 11.859375 -13.359375 C 10.859375 -14.328125 9.6875 -14.8125 8.34375 -14.8125 L 5.78125 -14.8125 L 5.78125 -4.734375 Z M 8.359375 -4.734375 "/></g></g></g><g fill="#ffffff" fill-opacity="1"><g transform="translate(268.25109, 181.914362)"><g><path d="M 16.578125 -19.15625 C 17.441406 -18.550781 17.875 -17.960938 17.875 -17.390625 C 17.875 -17.054688 17.671875 -16.585938 17.265625 -15.984375 L 11.515625 -7.375 L 11.515625 -2.296875 C 11.515625 -1.878906 11.5 -1.566406 11.46875 -1.359375 C 11.4375 -1.160156 11.347656 -0.925781 11.203125 -0.65625 C 11.066406 -0.394531 10.828125 -0.210938 10.484375 -0.109375 C 10.148438 -0.00390625 9.695312 0.046875 9.125 0.046875 C 8.5625 0.046875 8.109375 -0.00390625 7.765625 -0.109375 C 7.429688 -0.210938 7.191406 -0.398438 7.046875 -0.671875 C 6.910156 -0.953125 6.828125 -1.191406 6.796875 -1.390625 C 6.773438 -1.597656 6.765625 -1.914062 6.765625 -2.34375 L 6.765625 -7.375 L 1.015625 -15.984375 C 0.609375 -16.585938 0.40625 -17.054688 0.40625 -17.390625 C 0.40625 -17.960938 0.796875 -18.507812 1.578125 -19.03125 C 2.359375 -19.5625 2.914062 -19.828125 3.25 -19.828125 C 3.582031 -19.828125 3.847656 -19.753906 4.046875 -19.609375 C 4.347656 -19.410156 4.671875 -19.046875 5.015625 -18.515625 L 9.140625 -11.90625 L 13.265625 -18.515625 C 13.597656 -19.046875 13.890625 -19.394531 14.140625 -19.5625 C 14.390625 -19.738281 14.675781 -19.828125 15 -19.828125 C 15.332031 -19.828125 15.859375 -19.601562 16.578125 -19.15625 Z M 16.578125 -19.15625 "/></g></g></g><g fill="#ffffff" fill-opacity="1"><g transform="translate(119.462052, 196.864881)"><g><path d="M 0.734375 -5.609375 L 0.734375 -6.359375 C 0.734375 -7.117188 0.929688 -7.644531 1.328125 -7.9375 C 1.722656 -8.226562 2.273438 -8.375 2.984375 -8.375 C 3.492188 -8.375 4.4375 -8.28125 5.8125 -8.09375 L 5.8125 -7.421875 L 2.984375 -7.53125 C 2.890625 -7.539062 2.8125 -7.546875 2.75 -7.546875 C 2.363281 -7.546875 2.070312 -7.460938 1.875 -7.296875 C 1.675781 -7.140625 1.578125 -6.828125 1.578125 -6.359375 L 1.578125 -5.609375 C 1.578125 -5.140625 1.664062 -4.832031 1.84375 -4.6875 C 2.03125 -4.550781 2.328125 -4.484375 2.734375 -4.484375 L 4.34375 -4.484375 C 5.519531 -4.484375 6.109375 -3.835938 6.109375 -2.546875 L 6.109375 -1.765625 C 6.109375 -1.378906 6.046875 -1.054688 5.921875 -0.796875 C 5.796875 -0.546875 5.613281 -0.359375 5.375 -0.234375 C 5.144531 -0.109375 4.90625 -0.0234375 4.65625 0.015625 C 4.414062 0.0664062 4.140625 0.09375 3.828125 0.09375 C 3.554688 0.09375 3.085938 0.0625 2.421875 0 C 1.753906 -0.0703125 1.273438 -0.132812 0.984375 -0.1875 L 0.984375 -0.875 C 1.816406 -0.789062 2.765625 -0.75 3.828125 -0.75 C 4.796875 -0.75 5.28125 -1.085938 5.28125 -1.765625 L 5.28125 -2.546875 C 5.28125 -2.898438 5.207031 -3.171875 5.0625 -3.359375 C 4.925781 -3.554688 4.6875 -3.65625 4.34375 -3.65625 L 2.75 -3.65625 C 2.320312 -3.65625 1.96875 -3.707031 1.6875 -3.8125 C 1.40625 -3.914062 1.195312 -4.066406 1.0625 -4.265625 C 0.9375 -4.472656 0.847656 -4.675781 0.796875 -4.875 C 0.753906 -5.082031 0.734375 -5.328125 0.734375 -5.609375 Z M 0.734375 -5.609375 "/></g></g></g><g fill="#ffffff" fill-opacity="1"><g transform="translate(128.447848, 196.864881)"><g><path d="M 0.515625 0 L 3.5625 -8.296875 L 4.40625 -8.296875 L 7.3125 0 L 6.3125 0 L 5.609375 -2.3125 L 2.296875 -2.3125 L 1.546875 0 Z M 2.59375 -3.15625 L 5.3125 -3.15625 L 3.96875 -7.015625 Z M 2.59375 -3.15625 "/></g></g></g><g fill="#ffffff" fill-opacity="1"><g transform="translate(138.409207, 196.864881)"><g><path d="M 0.515625 -8.296875 L 1.421875 -8.296875 L 3.859375 -1.34375 L 6.390625 -8.296875 L 7.3125 -8.296875 L 4.265625 0 L 3.421875 0 Z M 0.515625 -8.296875 "/></g></g></g><g fill="#ffffff" fill-opacity="1"><g transform="translate(148.370564, 196.864881)"><g><path d="M 0.90625 -1.390625 L 0.90625 -6.828125 C 0.90625 -7.335938 1.03125 -7.707031 1.28125 -7.9375 C 1.53125 -8.175781 1.851562 -8.296875 2.25 -8.296875 C 2.257812 -8.296875 2.269531 -8.296875 2.28125 -8.296875 C 2.300781 -8.296875 2.320312 -8.296875 2.34375 -8.296875 L 5.921875 -8.125 L 5.921875 -7.46875 L 2.34375 -7.46875 C 2.15625 -7.46875 2.015625 -7.429688 1.921875 -7.359375 C 1.828125 -7.285156 1.773438 -7.210938 1.765625 -7.140625 C 1.753906 -7.066406 1.75 -6.960938 1.75 -6.828125 L 1.75 -4.5625 L 5.46875 -4.453125 L 5.46875 -3.78125 L 1.75 -3.65625 L 1.75 -1.390625 C 1.75 -1.253906 1.765625 -1.144531 1.796875 -1.0625 C 1.835938 -0.976562 1.894531 -0.914062 1.96875 -0.875 C 2.050781 -0.84375 2.117188 -0.820312 2.171875 -0.8125 C 2.222656 -0.8125 2.304688 -0.8125 2.421875 -0.8125 C 2.429688 -0.8125 2.441406 -0.8125 2.453125 -0.8125 L 5.921875 -0.8125 L 5.921875 -0.15625 L 2.453125 0.03125 C 2.421875 0.03125 2.390625 0.03125 2.359375 0.03125 C 2.328125 0.0390625 2.296875 0.046875 2.265625 0.046875 C 2.078125 0.046875 1.90625 0.0234375 1.75 -0.015625 C 1.601562 -0.0546875 1.460938 -0.128906 1.328125 -0.234375 C 1.203125 -0.335938 1.097656 -0.484375 1.015625 -0.671875 C 0.941406 -0.867188 0.90625 -1.109375 0.90625 -1.390625 Z M 0.90625 -1.390625 "/></g></g></g><g fill="#ffffff" fill-opacity="1"><g transform="translate(157.163517, 196.864881)"><g/></g></g><g fill="#ffffff" fill-opacity="1"><g transform="translate(163.211273, 196.864881)"><g><path d="M 0.625 0 L 1.171875 -8.296875 L 2.328125 -8.296875 L 4.53125 -1.390625 L 6.6875 -8.296875 L 7.828125 -8.296875 L 8.46875 0 L 7.625 0 L 7.109375 -6.78125 L 4.984375 0 L 4.125 0 L 1.921875 -6.78125 L 1.46875 0 Z M 0.625 0 "/></g></g></g><g fill="#ffffff" fill-opacity="1"><g transform="translate(174.658671, 196.864881)"><g><path d="M 0.734375 -4.09375 C 0.734375 -4.726562 0.765625 -5.28125 0.828125 -5.75 C 0.898438 -6.226562 1.007812 -6.617188 1.15625 -6.921875 C 1.300781 -7.234375 1.457031 -7.484375 1.625 -7.671875 C 1.800781 -7.867188 2.019531 -8.015625 2.28125 -8.109375 C 2.539062 -8.210938 2.796875 -8.28125 3.046875 -8.3125 C 3.296875 -8.34375 3.597656 -8.359375 3.953125 -8.359375 C 4.265625 -8.359375 4.53125 -8.347656 4.75 -8.328125 C 4.976562 -8.304688 5.210938 -8.257812 5.453125 -8.1875 C 5.691406 -8.125 5.890625 -8.03125 6.046875 -7.90625 C 6.203125 -7.78125 6.351562 -7.613281 6.5 -7.40625 C 6.65625 -7.195312 6.773438 -6.941406 6.859375 -6.640625 C 6.953125 -6.335938 7.023438 -5.972656 7.078125 -5.546875 C 7.128906 -5.128906 7.15625 -4.644531 7.15625 -4.09375 C 7.15625 -3.375 7.109375 -2.765625 7.015625 -2.265625 C 6.921875 -1.765625 6.789062 -1.359375 6.625 -1.046875 C 6.46875 -0.742188 6.242188 -0.507812 5.953125 -0.34375 C 5.671875 -0.1875 5.378906 -0.0820312 5.078125 -0.03125 C 4.773438 0.0195312 4.398438 0.046875 3.953125 0.046875 C 3.578125 0.046875 3.257812 0.03125 3 0 C 2.75 -0.03125 2.488281 -0.09375 2.21875 -0.1875 C 1.957031 -0.28125 1.742188 -0.421875 1.578125 -0.609375 C 1.410156 -0.796875 1.257812 -1.039062 1.125 -1.34375 C 0.988281 -1.644531 0.890625 -2.023438 0.828125 -2.484375 C 0.765625 -2.941406 0.734375 -3.476562 0.734375 -4.09375 Z M 1.578125 -4.09375 C 1.578125 -3.363281 1.613281 -2.78125 1.6875 -2.34375 C 1.757812 -1.914062 1.898438 -1.582031 2.109375 -1.34375 C 2.316406 -1.113281 2.554688 -0.960938 2.828125 -0.890625 C 3.097656 -0.828125 3.472656 -0.796875 3.953125 -0.796875 C 4.335938 -0.796875 4.648438 -0.816406 4.890625 -0.859375 C 5.128906 -0.910156 5.347656 -1.003906 5.546875 -1.140625 C 5.742188 -1.273438 5.894531 -1.46875 6 -1.71875 C 6.101562 -1.96875 6.179688 -2.28125 6.234375 -2.65625 C 6.285156 -3.039062 6.3125 -3.519531 6.3125 -4.09375 C 6.3125 -4.46875 6.300781 -4.804688 6.28125 -5.109375 C 6.257812 -5.410156 6.234375 -5.671875 6.203125 -5.890625 C 6.171875 -6.117188 6.117188 -6.316406 6.046875 -6.484375 C 5.972656 -6.660156 5.90625 -6.804688 5.84375 -6.921875 C 5.78125 -7.035156 5.6875 -7.128906 5.5625 -7.203125 C 5.445312 -7.285156 5.34375 -7.347656 5.25 -7.390625 C 5.164062 -7.429688 5.035156 -7.460938 4.859375 -7.484375 C 4.691406 -7.503906 4.550781 -7.515625 4.4375 -7.515625 C 4.332031 -7.515625 4.171875 -7.515625 3.953125 -7.515625 C 3.742188 -7.515625 3.582031 -7.515625 3.46875 -7.515625 C 3.363281 -7.515625 3.222656 -7.503906 3.046875 -7.484375 C 2.878906 -7.460938 2.75 -7.429688 2.65625 -7.390625 C 2.570312 -7.347656 2.46875 -7.285156 2.34375 -7.203125 C 2.226562 -7.128906 2.132812 -7.035156 2.0625 -6.921875 C 2 -6.804688 1.929688 -6.660156 1.859375 -6.484375 C 1.785156 -6.316406 1.726562 -6.117188 1.6875 -5.890625 C 1.65625 -5.671875 1.628906 -5.410156 1.609375 -5.109375 C 1.585938 -4.804688 1.578125 -4.46875 1.578125 -4.09375 Z M 1.578125 -4.09375 "/></g></g></g><g fill="#ffffff" fill-opacity="1"><g transform="translate(184.68809, 196.864881)"><g><path d="M 0.90625 0 L 0.90625 -8.296875 L 1.765625 -8.296875 L 6.1875 -1.5625 L 6.1875 -8.296875 L 7.03125 -8.296875 L 7.03125 0 L 6.1875 0 L 1.765625 -6.734375 L 1.765625 0 Z M 0.90625 0 "/></g></g></g><g fill="#ffffff" fill-opacity="1"><g transform="translate(194.762884, 196.864881)"><g><path d="M 0.90625 -1.390625 L 0.90625 -6.828125 C 0.90625 -7.335938 1.03125 -7.707031 1.28125 -7.9375 C 1.53125 -8.175781 1.851562 -8.296875 2.25 -8.296875 C 2.257812 -8.296875 2.269531 -8.296875 2.28125 -8.296875 C 2.300781 -8.296875 2.320312 -8.296875 2.34375 -8.296875 L 5.921875 -8.125 L 5.921875 -7.46875 L 2.34375 -7.46875 C 2.15625 -7.46875 2.015625 -7.429688 1.921875 -7.359375 C 1.828125 -7.285156 1.773438 -7.210938 1.765625 -7.140625 C 1.753906 -7.066406 1.75 -6.960938 1.75 -6.828125 L 1.75 -4.5625 L 5.46875 -4.453125 L 5.46875 -3.78125 L 1.75 -3.65625 L 1.75 -1.390625 C 1.75 -1.253906 1.765625 -1.144531 1.796875 -1.0625 C 1.835938 -0.976562 1.894531 -0.914062 1.96875 -0.875 C 2.050781 -0.84375 2.117188 -0.820312 2.171875 -0.8125 C 2.222656 -0.8125 2.304688 -0.8125 2.421875 -0.8125 C 2.429688 -0.8125 2.441406 -0.8125 2.453125 -0.8125 L 5.921875 -0.8125 L 5.921875 -0.15625 L 2.453125 0.03125 C 2.421875 0.03125 2.390625 0.03125 2.359375 0.03125 C 2.328125 0.0390625 2.296875 0.046875 2.265625 0.046875 C 2.078125 0.046875 1.90625 0.0234375 1.75 -0.015625 C 1.601562 -0.0546875 1.460938 -0.128906 1.328125 -0.234375 C 1.203125 -0.335938 1.097656 -0.484375 1.015625 -0.671875 C 0.941406 -0.867188 0.90625 -1.109375 0.90625 -1.390625 Z M 0.90625 -1.390625 "/></g></g></g><g fill="#ffffff" fill-opacity="1"><g transform="translate(203.555837, 196.864881)"><g><path d="M 0.515625 -8.296875 L 1.421875 -8.296875 L 3.578125 -3.953125 L 5.9375 -8.296875 L 6.859375 -8.296875 L 4 -2.953125 L 4 0 L 3.15625 0 L 3.15625 -2.953125 Z M 0.515625 -8.296875 "/></g></g></g><g fill="#ffffff" fill-opacity="1"><g transform="translate(213.06345, 196.864881)"><g/></g></g><g fill="#ffffff" fill-opacity="1"><g transform="translate(219.1112, 196.864881)"><g><path d="M 0.90625 0 L 0.90625 -8.296875 L 1.765625 -8.296875 L 6.1875 -1.5625 L 6.1875 -8.296875 L 7.03125 -8.296875 L 7.03125 0 L 6.1875 0 L 1.765625 -6.734375 L 1.765625 0 Z M 0.90625 0 "/></g></g></g><g fill="#ffffff" fill-opacity="1"><g transform="translate(229.185994, 196.864881)"><g><path d="M 0.734375 -4.09375 C 0.734375 -4.726562 0.765625 -5.28125 0.828125 -5.75 C 0.898438 -6.226562 1.007812 -6.617188 1.15625 -6.921875 C 1.300781 -7.234375 1.457031 -7.484375 1.625 -7.671875 C 1.800781 -7.867188 2.019531 -8.015625 2.28125 -8.109375 C 2.539062 -8.210938 2.796875 -8.28125 3.046875 -8.3125 C 3.296875 -8.34375 3.597656 -8.359375 3.953125 -8.359375 C 4.265625 -8.359375 4.53125 -8.347656 4.75 -8.328125 C 4.976562 -8.304688 5.210938 -8.257812 5.453125 -8.1875 C 5.691406 -8.125 5.890625 -8.03125 6.046875 -7.90625 C 6.203125 -7.78125 6.351562 -7.613281 6.5 -7.40625 C 6.65625 -7.195312 6.773438 -6.941406 6.859375 -6.640625 C 6.953125 -6.335938 7.023438 -5.972656 7.078125 -5.546875 C 7.128906 -5.128906 7.15625 -4.644531 7.15625 -4.09375 C 7.15625 -3.375 7.109375 -2.765625 7.015625 -2.265625 C 6.921875 -1.765625 6.789062 -1.359375 6.625 -1.046875 C 6.46875 -0.742188 6.242188 -0.507812 5.953125 -0.34375 C 5.671875 -0.1875 5.378906 -0.0820312 5.078125 -0.03125 C 4.773438 0.0195312 4.398438 0.046875 3.953125 0.046875 C 3.578125 0.046875 3.257812 0.03125 3 0 C 2.75 -0.03125 2.488281 -0.09375 2.21875 -0.1875 C 1.957031 -0.28125 1.742188 -0.421875 1.578125 -0.609375 C 1.410156 -0.796875 1.257812 -1.039062 1.125 -1.34375 C 0.988281 -1.644531 0.890625 -2.023438 0.828125 -2.484375 C 0.765625 -2.941406 0.734375 -3.476562 0.734375 -4.09375 Z M 1.578125 -4.09375 C 1.578125 -3.363281 1.613281 -2.78125 1.6875 -2.34375 C 1.757812 -1.914062 1.898438 -1.582031 2.109375 -1.34375 C 2.316406 -1.113281 2.554688 -0.960938 2.828125 -0.890625 C 3.097656 -0.828125 3.472656 -0.796875 3.953125 -0.796875 C 4.335938 -0.796875 4.648438 -0.816406 4.890625 -0.859375 C 5.128906 -0.910156 5.347656 -1.003906 5.546875 -1.140625 C 5.742188 -1.273438 5.894531 -1.46875 6 -1.71875 C 6.101562 -1.96875 6.179688 -2.28125 6.234375 -2.65625 C 6.285156 -3.039062 6.3125 -3.519531 6.3125 -4.09375 C 6.3125 -4.46875 6.300781 -4.804688 6.28125 -5.109375 C 6.257812 -5.410156 6.234375 -5.671875 6.203125 -5.890625 C 6.171875 -6.117188 6.117188 -6.316406 6.046875 -6.484375 C 5.972656 -6.660156 5.90625 -6.804688 5.84375 -6.921875 C 5.78125 -7.035156 5.6875 -7.128906 5.5625 -7.203125 C 5.445312 -7.285156 5.34375 -7.347656 5.25 -7.390625 C 5.164062 -7.429688 5.035156 -7.460938 4.859375 -7.484375 C 4.691406 -7.503906 4.550781 -7.515625 4.4375 -7.515625 C 4.332031 -7.515625 4.171875 -7.515625 3.953125 -7.515625 C 3.742188 -7.515625 3.582031 -7.515625 3.46875 -7.515625 C 3.363281 -7.515625 3.222656 -7.503906 3.046875 -7.484375 C 2.878906 -7.460938 2.75 -7.429688 2.65625 -7.390625 C 2.570312 -7.347656 2.46875 -7.285156 2.34375 -7.203125 C 2.226562 -7.128906 2.132812 -7.035156 2.0625 -6.921875 C 2 -6.804688 1.929688 -6.660156 1.859375 -6.484375 C 1.785156 -6.316406 1.726562 -6.117188 1.6875 -5.890625 C 1.65625 -5.671875 1.628906 -5.410156 1.609375 -5.109375 C 1.585938 -4.804688 1.578125 -4.46875 1.578125 -4.09375 Z M 1.578125 -4.09375 "/></g></g></g><g fill="#ffffff" fill-opacity="1"><g transform="translate(239.215413, 196.864881)"><g><path d="M 0.515625 -8.296875 L 1.421875 -8.296875 L 3.84375 -1.46875 L 5.90625 -8.296875 L 6.859375 -8.296875 L 6.078125 -5.65625 L 7.59375 -1.390625 L 9.703125 -8.296875 L 10.625 -8.296875 L 8.03125 0 L 7.1875 0 L 5.640625 -4.25 L 4.265625 0 L 3.421875 0 Z M 0.515625 -8.296875 "/></g></g></g><g fill="#ffffff" fill-opacity="1"><g transform="translate(252.48915, 196.864881)"><g><path d="M 0.9375 -0.265625 L 0.9375 -0.90625 C 0.9375 -1.09375 1.023438 -1.1875 1.203125 -1.1875 L 1.828125 -1.1875 C 2.003906 -1.1875 2.09375 -1.09375 2.09375 -0.90625 L 2.09375 -0.265625 C 2.09375 -0.0859375 2.003906 0 1.828125 0 L 1.203125 0 C 1.023438 0 0.9375 -0.0859375 0.9375 -0.265625 Z M 1 -8.296875 L 2.015625 -8.296875 L 1.921875 -2.21875 L 1.078125 -2.21875 Z M 1 -8.296875 "/></g></g></g></svg>